<?xml version="1.0" standalone="no"?>
<!DOCTYPE svg PUBLIC "-//W3C//DTD SVG 20010904//EN"
 "http://www.w3.org/TR/2001/REC-SVG-20010904/DTD/svg10.dtd">
<svg version="1.0" xmlns="http://www.w3.org/2000/svg"
 width="700.000000pt" height="700.000000pt" viewBox="0 0 700.000000 700.000000"
 preserveAspectRatio="xMidYMid meet">
<metadata>
Created by potrace 1.11, written by Peter Selinger 2001-2013
</metadata>
<g transform="translate(0.000000,700.000000) scale(0.100000,-0.100000)"
fill="#000000" stroke="none">
<path d="M3030 6549 c-660 -47 -1282 -289 -1800 -700 -132 -104 -413 -384
-512 -509 -380 -481 -608 -1018 -688 -1617 -29 -221 -29 -591 1 -821 126 -979
693 -1849 1542 -2364 386 -234 793 -377 1272 -445 172 -25 670 -25 840 0 768
113 1399 431 1920 968 495 510 796 1136 892 1857 21 160 24 610 5 752 -44 324
-113 595 -215 847 l-33 82 -94 -131 c-216 -298 -549 -661 -920 -1002 -90 -83
-186 -171 -213 -196 l-48 -45 11 -70 c17 -106 15 -354 -5 -465 -47 -272 -157
-519 -323 -725 -72 -89 -400 -424 -512 -522 -111 -98 -160 -126 -221 -127 -40
-1 -53 4 -78 28 -61 59 -88 162 -146 556 -25 168 -50 335 -57 373 l-13 67
-125 3 c-123 3 -153 10 -271 61 -12 5 -19 -6 -33 -51 -61 -198 -211 -342 -518
-500 -243 -126 -498 -189 -663 -164 -145 21 -229 89 -267 215 -50 165 7 447
147 727 124 247 263 412 405 480 41 20 85 41 97 45 21 9 21 10 -17 75 -22 36
-51 101 -66 145 -23 67 -28 95 -28 190 l0 111 -95 17 c-53 9 -204 32 -336 51
-309 44 -344 51 -439 82 -51 16 -92 38 -115 59 -32 29 -36 38 -35 82 1 88 41
139 344 442 306 307 387 371 585 470 231 114 436 162 690 162 83 0 181 -6 220
-12 l70 -11 50 53 c27 30 124 134 215 232 214 232 504 514 666 650 118 100
384 304 423 325 8 5 13 12 10 16 -12 11 -281 106 -397 139 -354 102 -749 143
-1122 115z"/>
<path d="M4862 5580 c-175 -46 -314 -174 -381 -350 -35 -93 -37 -264 -3 -363
44 -126 139 -239 257 -307 67 -38 189 -70 270 -70 81 0 203 32 274 72 80 45
179 149 218 229 110 224 71 471 -102 644 -143 143 -338 196 -533 145z m319
-156 c85 -40 162 -118 203 -203 29 -61 31 -74 31 -176 0 -102 -2 -115 -31
-176 -41 -85 -118 -162 -203 -203 -61 -29 -74 -31 -176 -31 -102 0 -115 2
-176 31 -261 124 -322 470 -120 672 91 92 174 123 311 119 82 -2 104 -7 161
-33z"/>
</g>
</svg>
