<svg width="70" height="100" xmlns="http://www.w3.org/2000/svg" xmlns:xlink="http://www.w3.org/1999/xlink"><desc>Created using Figma</desc><use xlink:href="#a" transform="translate(-2006 -1371) translate(2019 1464.18)" fill="#DCE3E9"/><use xlink:href="#b" transform="translate(-2006 -1371) translate(2011.72 1416.95)" fill="#EFC75E"/><use xlink:href="#c" transform="translate(-2006 -1371) translate(2018.62 1416.95)" fill="#E8B121"/><use xlink:href="#d" transform="translate(-2006 -1371) translate(2006 1394.53)" fill="#F67645"/><use xlink:href="#e" transform="translate(-2006 -1371) translate(2018.6 1371)" fill="#1F4456"/><use xlink:href="#f" transform="translate(-2006 -1371) translate(2045.86 1388.64)" fill="#95B4C3"/><use xlink:href="#g" transform="translate(-2006 -1371) translate(2045 1387.8)" fill="#153342"/><use xlink:href="#h" transform="translate(-2006 -1371) translate(2059.16 1371)" fill="#F67645"/><use xlink:href="#i" transform="translate(-2006 -1371) translate(2018.6 1399.88)" fill="#0C3142"/><use xlink:href="#j" transform="translate(-2006 -1371) translate(2022.9 1403.52)" fill="#F67645"/><defs><path id="a" d="M43 3.4c0 2-9.6 3.4-21.5 3.4C9.5 6.8 0 5.3 0 3.4 0 1.4 9.6 0 21.5 0 33.5 0 43 1.5 43 3.4z"/><path id="b" d="M16 2.2c3 3 3 8 0 10.8-3 3-12 7-15 4S2 5 5 2s8-3 11 0z"/><path id="c" d="M0 1c0 5.7 4.6 10.2 10.3 10.2h.3c1.5-3 1-6.5-1.4-9C6.7-.2 3-.6 0 1z"/><path id="d" d="M37.8 8c9.4 9 11.2 22 2.4 30.7l-4.2 4c-9 8.8-2.8-12-12-21.2-9.5-9-30.8-3-22-11.8l4.3-4c9-8.8 22.2-7 31.5 2.2z"/><path id="e" d="M56.2 1c3 3 1.6 20.5-15.8 37.6-11.4 11-18.6 15-18.6 15-7.6 5-11.3 1.6-16-3-5-4.8-8.4-8.4-3.2-15.8 0 0 4-7 15.3-18C35.3-.5 53.3-1.7 56 1z"/><path id="f" d="M6 11.8c-1.6 0-3-.6-4.2-1.7C-.6 8-.6 4 1.8 1.8 2.8.7 4.4 0 6 0s3 .6 4.3 1.7c1 1 1.7 2.6 1.7 4.2 0 1.5-.6 3-1.7 4C9 11.3 7.6 12 6 12z"/><path id="g" d="M7 1.7c1.3 0 2.6.5 3.5 1.5 1 1 1.6 2.2 1.6 3.5 0 1.4-.5 2.6-1.5 3.6S8.3 11.8 7 11.8c-1.5 0-2.8-.5-3.8-1.5-2-2-2-5.2 0-7 1-1 2.3-1.6 3.7-1.6zM7 0C5 0 3.3.7 2 2-.7 4.6-.7 9 2 11.5c1.4 1.3 3 2 5 2 1.6 0 3.4-.7 4.8-2 2.6-2.6 2.6-7 0-9.5-1.4-1.3-3.2-2-5-2z"/><path id="h" d="M0 2c.8 3.5 2.7 7 5.7 10 2.6 2.5 5.7 4.3 8.7 5.2 3.2-8.2 3-14.5 1.3-16C14-.5 8-1 0 2z"/><path id="i" d="M25.3 22.4c-8 5.3-12 1.7-17-3.2-5-5-8.7-8.8-3.3-16.6L6.8 0c-3 3.8-4.2 6-4.2 6-5.2 7.3-1.7 11 3 15.6 5 4.7 8.6 8 16.2 3 0 0 1.3-.6 3.7-2.3h-.2z"/><path id="j" d="M20.3.3c1.4 1.4-1.2 6-8 12.6C6 19.3 2 21 .4 19.6-.8 18.4 1 14.5 7.6 8 14 1.6 19-1 20.3.3z"/></defs></svg>