<svg width="22" height="20" viewBox="0 0 22 20" version="1.1" xmlns="http://www.w3.org/2000/svg" xmlns:xlink="http://www.w3.org/1999/xlink">
<title>noun_83783_cc</title>
<desc>Created using Figma</desc>
<g id="Canvas" transform="translate(-1428 -744)">
<g id="noun_83783_cc">
<g id="Group">
<g id="Vector">
<use xlink:href="#path0_fill" transform="translate(1429.24 747.987)" fill="#F26C4F"/>
</g>
<g id="Vector">
<use xlink:href="#path1_fill" transform="translate(1428 744)" fill="#F26C4F"/>
</g>
</g>
</g>
</g>
<defs>
<path id="path0_fill" d="M 16.0937 14.2369C 15.2522 10.0713 14.3733 5.17427 15.3042 0.953231C 15.3435 0.774482 15.3229 0.615431 15.2635 0.481552C 15.1744 0.212333 14.946 -0.00253046 14.5738 2.31057e-05C 9.95054 0.0434337 5.35475 0.641332 0.731463 0.684013C -0.109668 0.692038 -0.224801 1.80794 0.383131 2.11182C 0.375798 2.15523 0.370664 2.19864 0.370664 2.24679C 0.370664 2.24679 0.300265 10.8279 1.1887 15.042C 1.1887 15.042 1.19053 15.0474 1.19126 15.0507C 1.10986 15.402 1.25286 15.7752 1.71633 15.8467C 5.51609 16.4366 9.19851 15.2729 12.992 15.189C 13.967 15.1675 13.9688 13.6616 12.992 13.6835C 9.52631 13.759 6.07122 14.8468 2.60843 14.4557C 1.79773 10.4437 1.88499 6.19277 1.88316 2.24643C 1.88316 2.21688 1.87766 2.19134 1.87436 2.16362C 5.81052 2.05528 9.72724 1.6208 13.6627 1.52669C 12.9796 5.78749 13.7969 10.4904 14.6347 14.6352C 14.8272 15.5892 16.2851 15.185 16.0937 14.2369Z"/>
<path id="path1_fill" d="M 0.403709 10.5761C 2.7522 12.914 5.10143 15.2487 7.44992 17.5852C 8.09196 18.2251 9.13512 18.0504 9.60482 17.3098C 13.0342 11.9014 16.7357 6.57173 21.5585 2.29232C 22.8814 1.11878 20.9341 -0.804782 19.6192 0.36256C 14.634 4.78642 10.7803 10.3433 7.23506 15.9331C 7.95409 15.8404 8.67202 15.7481 9.38995 15.6558C 7.04146 13.3193 4.69223 10.9839 2.34447 8.64668C 1.09304 7.40091 -0.846622 9.33067 0.403709 10.5761Z"/>
</defs>
</svg>
