<svg width="70" height="69" viewBox="0 0 70 69" version="1.1" xmlns="http://www.w3.org/2000/svg" xmlns:xlink="http://www.w3.org/1999/xlink">
<title>icon</title>
<desc>Created using Figma</desc>
<g id="Canvas" transform="translate(-2006 -1377)">
<g id="icon">
<g id="Vector">
<use xlink:href="#path0_fill" transform="translate(2011.72 1423.35)" fill="#EFC75E"/>
</g>
<g id="Vector">
<use xlink:href="#path1_fill" transform="translate(2018.62 1423.36)" fill="#E8B121"/>
</g>
<g id="Vector">
<use xlink:href="#path2_fill" transform="translate(2006 1400.74)" fill="#F67645"/>
</g>
<g id="Vector">
<use xlink:href="#path3_fill" transform="translate(2018.6 1377)" fill="#1F4456"/>
</g>
<g id="Vector">
<use xlink:href="#path4_fill" transform="translate(2045.86 1394.8)" fill="#95B4C3"/>
</g>
<g id="Vector">
<use xlink:href="#path5_fill" transform="translate(2045 1393.95)" fill="#153342"/>
</g>
<g id="Vector">
<use xlink:href="#path6_fill" transform="translate(2059.16 1377)" fill="#F67645"/>
</g>
<g id="Vector">
<use xlink:href="#path7_fill" transform="translate(2018.6 1406.14)" fill="#0C3142"/>
</g>
<g id="Vector">
<use xlink:href="#path8_fill" transform="translate(2022.9 1409.81)" fill="#F67645"/>
</g>
</g>
</g>
<defs>
<path id="path0_fill" d="M 16.0793 2.25855C 19.1277 5.26773 19.1277 10.1493 16.0793 13.1585C 13.0308 16.1699 4.14729 20.0638 1.09906 17.0524C -1.94939 14.041 1.99305 5.26773 5.0415 2.25855C 8.08995 -0.752849 13.0311 -0.752849 16.0793 2.25855Z"/>
<path id="path1_fill" d="M 0.0136728 0.890125L 9.57747e-07 1.15041C 9.57747e-07 6.77283 4.62547 11.332 10.3296 11.332L 10.5511 11.3208C 12.1178 8.40768 11.661 4.71066 9.17495 2.25695C 6.69364 -0.192332 2.96125 -0.648384 0.0136728 0.890125Z"/>
<path id="path2_fill" d="M 37.8256 7.97763C 47.1716 17.1908 49.0425 30.2833 40.1612 39.0384L 35.9675 43.1733C 27.0862 51.926 33.2371 30.9271 23.8898 21.714C 14.5438 12.5008 -6.76174 18.5634 2.12067 9.80934L 6.31575 5.67439C 15.1968 -3.07852 28.4772 -1.23443 37.8256 7.97763Z"/>
<path id="path3_fill" d="M 56.2218 1.15994C 59.0624 3.95988 57.8136 21.7121 40.351 38.9258C 28.9781 50.1346 21.7944 54.0557 21.7944 54.0557C 14.1884 59.0899 10.5098 55.6519 5.72381 50.9345C 0.903314 46.182 -2.62262 42.5868 2.55722 35.0942C 2.55722 35.0942 6.58932 27.9613 17.9082 16.8047C 35.3558 -0.395582 53.3697 -1.65016 56.2218 1.15994Z"/>
<path id="path4_fill" d="M 6.02285 11.8785C 4.41377 11.8785 2.89975 11.2607 1.7612 10.1385C -0.588299 7.82269 -0.585834 4.05452 1.7612 1.7387C 2.89975 0.61757 4.41355 0 6.02285 0C 7.63214 0 9.14595 0.617791 10.2845 1.7387C 11.423 2.86093 12.0485 4.35303 12.0485 5.93927C 12.0485 7.52528 11.423 9.01761 10.2845 10.1385C 9.14595 11.2596 7.63214 11.8785 6.02285 11.8785Z"/>
<path id="path5_fill" d="M 6.88637 1.69693C 8.26478 1.69693 9.56293 2.22634 10.5385 3.18683C 11.5163 4.14954 12.0512 5.42688 12.0512 6.78774C 12.0512 8.14749 11.5152 9.42594 10.5385 10.3875C 9.56293 11.3491 8.2659 11.8785 6.88637 11.8785C 5.50572 11.8785 4.20981 11.3491 3.23423 10.3875C 1.22121 8.40336 1.22121 5.17234 3.23423 3.18683C 4.20869 2.22634 5.5046 1.69693 6.88637 1.69693ZM 6.88637 -8.22647e-07C 5.12464 -8.22647e-07 3.36044 0.66176 2.01768 1.98771C -0.672558 4.63939 -0.672558 8.93719 2.01768 11.5878C 3.36044 12.9126 5.12464 13.5755 6.88637 13.5755C 8.6481 13.5755 10.4098 12.9126 11.7551 11.5878C 14.4453 8.93719 14.4453 4.63939 11.7551 1.98771C 10.4101 0.662865 8.64833 -8.22647e-07 6.88637 -8.22647e-07Z"/>
<path id="path6_fill" d="M 2.84588e-06 2.12673C 0.759706 5.54447 2.6927 9.07842 5.72255 12.0606C 8.34732 14.6445 11.3913 16.415 14.4155 17.3313C 17.5673 9.04461 17.2643 2.73193 15.6666 1.15608C 14.1113 -0.376907 8.03417 -0.69243 2.84588e-06 2.12673Z"/>
<path id="path7_fill" d="M 25.2997 22.6156C 17.2884 27.9192 13.4125 24.2978 8.3728 19.328C 3.29406 14.3232 -0.42107 10.5356 5.03517 2.64152C 5.03517 2.64152 5.57003 1.70135 6.76014 7.01273e-07C 3.78633 3.79093 2.55722 5.95518 2.55722 5.95518C -2.62262 13.4489 0.90331 17.044 5.72381 21.7954C 10.5098 26.5128 14.1884 29.9509 21.7944 24.9167C 21.7944 24.9167 23.1188 24.1904 25.5176 22.4888L 25.2997 22.6156Z"/>
<path id="path8_fill" d="M 20.2882 0.34941C 21.6597 1.70011 19.0555 6.45837 12.4284 12.9894C 5.8025 19.5204 1.80379 21.2727 0.431217 19.9218C -0.939119 18.5711 0.838754 14.6273 7.46447 8.09653C 14.0902 1.56577 18.9188 -1.00239 20.2882 0.34941Z"/>
</defs>
</svg>
