<svg width="70" height="100" xmlns="http://www.w3.org/2000/svg" xmlns:xlink="http://www.w3.org/1999/xlink"><desc>Created using Figma</desc><use xlink:href="#a" transform="translate(-1266 -1371) translate(1279 1464.18)" fill="#DCE3E9"/><use xlink:href="#b" transform="translate(-1266 -1371) translate(1282.61 1372.18)" fill="#C3CFD2"/><use xlink:href="#c" transform="translate(-1266 -1371) translate(1282.61 1379.23)" fill="#38454F"/><use xlink:href="#d" transform="translate(-1266 -1371) translate(1266 1371)" fill="#894B9D"/><use xlink:href="#e" transform="translate(-1266 -1371) translate(1328.88 1387.47)" fill="#E57E25"/><use xlink:href="#f" transform="translate(-1266 -1371) translate(1326.51 1389.82)" fill="#E57E25"/><use xlink:href="#g" transform="translate(-1266 -1371) translate(1273.12 1421.57)" fill="#C03A2B"/><use xlink:href="#h" transform="translate(-1266 -1371) translate(1267.19 1400.4)" fill="#F0C419"/><use xlink:href="#i" transform="translate(-1266 -1371) translate(1333.63 1436.86)" fill="#4482C3"/><use xlink:href="#j" transform="translate(-1266 -1371) translate(1299.22 1374.53)" fill="#546A79"/><use xlink:href="#k" transform="translate(-1266 -1371) translate(1294.47 1374.53)" fill="#546A79"/><use xlink:href="#l" transform="translate(-1266 -1371) translate(1280.24 1381.58)" fill="#BDC3C7"/><use xlink:href="#m" transform="translate(-1266 -1371) translate(1280.24 1386.29)" fill="#BDC3C7"/><use xlink:href="#n" transform="translate(-1266 -1371) translate(1280.24 1390.99)" fill="#BDC3C7"/><use xlink:href="#o" transform="translate(-1266 -1371) translate(1298.03 1432.16)" fill="#E6ECF1"/><use xlink:href="#p" transform="translate(-1266 -1371) translate(1325.32 1412.16)" fill="#24AE5F"/><use xlink:href="#q" transform="translate(-1266 -1371) translate(1288.54 1385.11)" fill="#F0C419"/><use xlink:href="#r" transform="translate(-1266 -1371) translate(1288.54 1394.52)" fill="#E57E25"/><use xlink:href="#s" transform="translate(-1266 -1371) translate(1288.54 1413.34)" fill="#E57E25"/><use xlink:href="#t" transform="translate(-1266 -1371) translate(1298.03 1413.34)" fill="#24AE5F"/><use xlink:href="#u" transform="translate(-1266 -1371) translate(1307.53 1413.34)" fill="#894B9D"/><use xlink:href="#v" transform="translate(-1266 -1371) translate(1288.65 1403.93)" fill="#C03A2B"/><use xlink:href="#w" transform="translate(-1266 -1371) translate(1288.54 1423.92)" fill="#4482C3"/><defs><path id="a" d="M43 3.4c0 2-9.6 3.4-21.5 3.4C9.5 6.8 0 5.3 0 3.4 0 1.4 9.6 0 21.5 0 33.5 0 43 1.5 43 3.4z"/><path id="b" d="M34.5 68.2h-31c-2 0-3.5-1.5-3.5-3.5V3.5C0 1.5 1.6 0 3.5 0h31c2 0 3.5 1.6 3.5 3.5v61.2c0 2-1.6 3.5-3.5 3.5z"/><path id="c" d="M0 51.7h38V0H0v51.7z"/><path id="d" d="M4.7 6c.5.2 1 .6 1.2 1l1-1-1-1.3L4.3 6zM6 11.7c-.7 0-1.3-.6-1.3-1.2C4.7 8.5 3 7 1.2 7 .5 7 0 6.6 0 6c0-.8.5-1.3 1.2-1.3 2 0 3.5-1.6 3.5-3.5C4.7.5 5.3 0 6 0s1 .5 1 1.2c0 2 1.7 3.5 3.7 3.5.6 0 1.2.5 1.2 1.2 0 .2-1 1-1.6 1C8.4 7 7 8.4 7 10.4c0 .6-.4 1.2-1 1.2z"/><path id="e" d="M1.2 7C.5 7 0 6.6 0 6V1c0-.5.5-1 1.2-1 .6 0 1.2.5 1.2 1.2V6c0 .5-.6 1-1.2 1z"/><path id="f" d="M6 2.4H1c-.5 0-1-.6-1-1.2C0 .5.5 0 1.2 0H6c.6 0 1 .5 1 1.2 0 .6-.4 1.2-1 1.2z"/><path id="g" d="M2.4 1.2c0 .6-.6 1.2-1.2 1.2C.5 2.4 0 1.8 0 1.2 0 .5.5 0 1.2 0c.6 0 1.2.5 1.2 1.2z"/><path id="h" d="M2.4 1.2c0 .6-.6 1.2-1.2 1.2C.5 2.4 0 1.8 0 1.2 0 .5.5 0 1.2 0c.6 0 1.2.5 1.2 1.2z"/><path id="i" d="M2.4 1.2c0 .6-.6 1.2-1.2 1.2C.5 2.4 0 1.8 0 1.2 0 .5.5 0 1.2 0c.6 0 1.2.5 1.2 1.2z"/><path id="j" d="M7 2.4H1.3C.5 2.4 0 1.8 0 1.2 0 .5.5 0 1.2 0h6c.6 0 1 .5 1 1.2 0 .6-.4 1.2-1 1.2z"/><path id="k" d="M2.4 2.4H1.2C.5 2.4 0 1.8 0 1.2 0 .5.5 0 1.2 0h1.2C3 0 3.6.5 3.6 1.2c0 .6-.6 1.2-1.2 1.2z"/><path id="l" d="M1.2 3.5C.5 3.5 0 3 0 2.5V1c0-.5.5-1 1.2-1 .6 0 1.2.5 1.2 1.2v1.2c0 .6-.6 1-1.2 1z"/><path id="m" d="M1.2 3.5C.5 3.5 0 3 0 2.5V1c0-.5.5-1 1.2-1 .6 0 1.2.5 1.2 1.2v1.2c0 .6-.6 1-1.2 1z"/><path id="n" d="M1.2 3.5C.5 3.5 0 3 0 2.5V1c0-.5.5-1 1.2-1 .6 0 1.2.5 1.2 1.2v1.2c0 .6-.6 1-1.2 1z"/><path id="o" d="M7 3.5C7 5.5 5.6 7 3.7 7 1.7 7 0 5.6 0 3.6S1.6 0 3.6 0 7 1.6 7 3.5z"/><path id="p" d="M2.4 1.2c0 .6-.6 1.2-1.2 1.2C.5 2.4 0 1.8 0 1.2 0 .5.5 0 1.2 0c.6 0 1.2.5 1.2 1.2z"/><path id="q" d="M24.3 7h-23C.3 7 0 6.6 0 6V1c0-.5.5-1 1.2-1h23c.8 0 1.3.5 1.3 1.2V6c0 .5-.5 1-1.2 1z"/><path id="r" d="M24.3 7h-23C.3 7 0 6.6 0 6V1c0-.5.5-1 1.2-1h23c.8 0 1.3.5 1.3 1.2V6c0 .5-.5 1-1.2 1z"/><path id="s" d="M6 7H1c-.5 0-1-.4-1-1V1c0-.5.5-1 1.2-1H6c.6 0 1 .5 1 1.2V6c0 .5-.4 1-1 1z"/><path id="t" d="M6 7H1c-.5 0-1-.4-1-1V1c0-.5.5-1 1.2-1H6c.6 0 1 .5 1 1.2V6c0 .5-.4 1-1 1z"/><path id="u" d="M6 7H1c-.5 0-1-.4-1-1V1c0-.5.5-1 1.2-1H6c.6 0 1 .5 1 1.2V6c0 .5-.4 1-1 1z"/><path id="v" d="M24.3 7h-23C.3 7 0 6.6 0 6V1c0-.5.5-1 1.2-1h23c.8 0 1.3.5 1.3 1.2V6c0 .5-.5 1-1.2 1z"/><path id="w" d="M25 2.4H1c-.5 0-1-.6-1-1.2C0 .5.5 0 1.2 0H25c.6 0 1 .5 1 1.2 0 .6-.4 1.2-1 1.2z"/></defs></svg>