<svg width="1440" height="586" xmlns="http://www.w3.org/2000/svg" xmlns:xlink="http://www.w3.org/1999/xlink"><desc>Created using Figma</desc><g transform="translate(-949 188)"><clipPath id="a" clip-rule="evenodd"><path d="M949-188h1440v586H949v-586z" fill="#FFF"/></clipPath><g clip-path="url(#a)" fill-opacity=".1"><g transform="matrix(1 5.55112e-17 -5.55112e-17 1 1216 -95.1065)" fill="#FFF"><use xlink:href="#b"/><use xlink:href="#c"/></g><use xlink:href="#d" transform="matrix(1 5.55112e-17 -5.55112e-17 1 1149 79.8935)" fill="#FFF"/><g transform="matrix(1 5.55112e-17 -5.55112e-17 1 1233 -75.1065)"><use xlink:href="#e"/><use xlink:href="#f"/><use xlink:href="#g"/><use xlink:href="#h"/><use xlink:href="#i"/></g><g transform="matrix(-0.707107 0.707107 0.707107 0.707107 2059.01 -25.2873)" fill="#FFF"><use xlink:href="#j"/><use xlink:href="#k"/></g><g transform="matrix(-0.707107 0.707107 0.707107 0.707107 1995.51 -158)"><use xlink:href="#e"/><use xlink:href="#f"/><use xlink:href="#g"/><use xlink:href="#h"/><use xlink:href="#i"/></g></g></g><defs><path id="b" d="M27.7 0c-2 16.7-11 26-27.7 27.8 16.6 2 25.8 11 27.7 27.8 1.8-16.7 11-26 27.7-27.8-16.6-1.8-26-11-27.7-27.8zm209.8 158.7c-1.5 13-8.6 20.2-21.6 21.7 13 1.4 20 8.6 21.3 21.6 1.4-13 8.6-20.2 21.5-21.6-13-1.5-20-8.7-21.6-21.7z"/><path id="c" d="M66 220.4c13-1.5 20-8.7 21.5-21.7 1.4 13 8.6 20.2 21.5 21.7-13 1.4-20 8.6-21.5 21.6C86 229 79 221.8 66 220.4z"/><path id="d" d="M33.5 0C31.3 20.2 20 31.4 0 33.6 20 36 31.3 47 33.5 67.3 35.8 47 47 36 67 33.6 47 31.4 36 20.2 33.6 0z"/><path id="e" d="M119.2 90c-1 9-6 14.2-15.3 15.2 9 1 14 6 15 15.3 1-9.2 6-14.3 15.2-15.3-9.2-1-14.2-6-15.2-15.3zm-107 18.3c-.8 7.4-5 11.5-12.2 12.3 7.3.8 11.4 5 12.2 12.2.8-7.3 5-11.4 12.2-12.2-7.3-.8-11.4-5-12.2-12.3z"/><path id="f" d="M185.7 268.7c9.2-1 14.2-6 15.3-15.2 1 9 6 14.2 15.2 15.2-9 1-14.2 6-15.2 15.3-1-9.2-6-14.3-15.3-15.3z"/><path id="g" d="M152.8 15.3c9-1 14.2-6 15.2-15.3 1 9.2 6 14.3 15.3 15.3-9.2 1-14.2 6-15.3 15.2-1-9-6-14.2-15.2-15.2z"/><path id="h" d="M273 95.2c9-1 14.2-6 15.2-15.3 1 9 6 14 15.3 15-9.2 1-14.3 6-15.3 15.3-1-9.2-6-14.3-15.2-15.3z"/><path id="i" d="M287.5 225c9.2-1 14.3-6 15.3-15 1 9 6 14 15.2 15-9 1.2-14.2 6.3-15.2 15.4-1-9-6-14.2-15.3-15.3z"/><path id="j" d="M171.5 0C170 13 163 20.2 150 21.6c13 1.5 20 8.7 21.5 21.7C173 30.3 180 23 193 21.6 180 20.2 173 13 171.6 0z"/><path id="k" d="M0 61.6C13 60.2 20 53 21.5 40 23 53 30 60.2 43 61.6 30 63 23 70.3 21.6 83.3 20 70.3 13 63 0 61.6z"/></defs></svg>