<svg width="96" height="100" xmlns="http://www.w3.org/2000/svg" xmlns:xlink="http://www.w3.org/1999/xlink"><desc>Created using Figma</desc><use xlink:href="#a" transform="translate(-1615 -1371) translate(1641 1464.18)" fill="#DCE3E9"/><use xlink:href="#b" transform="translate(-1615 -1371) translate(1682.83 1399.27)"/><use xlink:href="#b" transform="translate(-1615 -1371) translate(1682.83 1399.27)"/><use xlink:href="#c" transform="translate(-1615 -1371) translate(1676.17 1408.02)" fill="#EC87C0"/><use xlink:href="#d" transform="translate(-1615 -1371) translate(1682.85 1389.42)" fill="#EAC6BB"/><use xlink:href="#e" transform="translate(-1615 -1371) translate(1687.1 1386.95)" fill="#FC6E51"/><use xlink:href="#f" transform="translate(-1615 -1371) translate(1681.16 1388.6)" fill="#FC6E51"/><use xlink:href="#g" transform="translate(-1615 -1371) translate(1615 1408.02)" fill="#48CFAD"/><use xlink:href="#h" transform="translate(-1615 -1371) translate(1623.35 1389.44)" fill="#EAC6BB"/><use xlink:href="#i" transform="translate(-1615 -1371) translate(1623.01 1386.12)" fill="#FFCE54"/><use xlink:href="#j" transform="translate(-1615 -1371) translate(1633 1405.57)" fill="#1F4456"/><use xlink:href="#k" transform="translate(-1615 -1371) translate(1657.67 1421.61)" fill="#DA4453"/><use xlink:href="#l" transform="translate(-1615 -1371) translate(1657 1411.12)" fill="#ED5564"/><use xlink:href="#m" transform="translate(-1615 -1371) translate(1646 1376.21)" fill="#EAC6BB"/><use xlink:href="#n" transform="translate(-1615 -1371) translate(1643.24 1371)" fill="#1F4456"/><use xlink:href="#o" transform="translate(-1615 -1371) translate(1684.93 1387.62)" fill="#E9573F"/><defs><path id="a" d="M43 3.4c0 2-9.6 3.4-21.5 3.4C9.5 6.8 0 5.3 0 3.4 0 1.4 9.6 0 21.5 0 33.5 0 43 1.5 43 3.4z"/><path id="b" d="M1.7.8c0 .5-.4.8-1 .8-.3 0-.7-.3-.7-.8C0 .4.4 0 .8 0c.5 0 1 .4 1 .8z"/><path id="c" d="M31.7 8l-.2-.2c-2-.5-2.7-1-3.6-1.4-4-1.2-5-2-5-2.5V0H11v4c-.2.5-1 1.4-4.3 2.6C6 7 5.2 7.6 3.2 8H3c-1.7.7-3 2.4-3 4.3v5.5h34.8V12c0-1.8-1.2-3.5-3-4z"/><path id="d" d="M21.5 11.4c0 7-6.7 13.2-10.8 13.2-4 0-10.7-6.3-10.7-13.2C0 4.4 4.8 0 10.7 0c6 0 10.8 4.5 10.8 11.4z"/><path id="e" d="M0 8.4c17-3 14.8 18 14.8 18 7.3-6.2 4-24.8-4.2-26C2.4-1 .4 1.8.4 1.8L0 8.3z"/><path id="f" d="M6.4 0S0 2.8 0 9c0 6.7 2.4 10.4 2.4 10.4 0-9.8 4.4-13 4.4-13L6.4 0z"/><path id="g" d="M35 8v-.2c-2.2-.5-3-1-3.8-1.4-3.3-1.2-4-2-4.3-2.5 0 0 0-1-1-1V0H11v4c-.2.5-1 1.4-4.3 2.6-.8.4-1 1-3.2 1.4H3c-1.7.7-3 2.4-3 4.3v5.5h38.2V12c0-1.8-1.3-3.5-3.2-4z"/><path id="h" d="M21.5 11.4c0 7-6.7 13.2-10.8 13.2-4 0-10.7-6.3-10.7-13.2C0 4.4 4.8 0 10.7 0c6 0 10.8 4.5 10.8 11.4z"/><path id="i" d="M16.6 4s-.2-2 2-3.2c1-.6-14-3.2-18 6-1.3 3.7-.2 9-.2 9l3.2-6s3.6 1 7.5 1c4 0 8-1 8-1l3 5S23 10 22 7c-1.6-3.2-5.3-3-5.3-3z"/><path id="j" d="M55 12.6c-3.4-1-5.8-1.8-7.2-2.4-5-2-6.5-3.3-6.8-4V0L19 .2v6c-.3.7-1.7 2-6.8 4-1.4.6-3.8 1.4-7 2.3H5c-3 1-5 3.8-5 6.8V28h60v-8.7c0-3-2-5.8-5-6.7z"/><path id="k" d="M8.7 0H2L0 11.8h10.7L8.7 0z"/><path id="l" d="M9.3 10.5H2.7L0 0h12L9.3 10.5z"/><path id="m" d="M34 18c0 11-10.5 21.5-17 21.5S0 29 0 18C0 7.3 7.6 0 17 0s17 7.2 17 18z"/><path id="n" d="M30.7 3.2C27.7.6 18-2.5 8.5 3.2 3.5 6.2 0 19 0 19s9.5 5.4 22-.4c7.4-3.5 7.3-1.7 9.4 1.5 1.2 2 5.4 4 5.4 4s3.2-12-6-20z"/><path id="o" d="M4.4 0c-1 .4-1.6 1-1.8 1 0 0-1.2.5-2.5 1.6 0 2 0 4.7 1 7.4 1-1.5 2-2.2 2-2.4h1C4 4 4.8 1 5 0z"/></defs></svg>