<svg width="21" height="17" xmlns="http://www.w3.org/2000/svg" xmlns:xlink="http://www.w3.org/1999/xlink"><desc>Created using Figma</desc><use xlink:href="#a" transform="translate(-1502 -2339) translate(1502 2339)" fill="#51BDFF"/><defs><path id="a" d="M14.7 0c-2.5 0-4.4 2-4.4 4.5V5C6 4.4 3.8 3 1.5.8 0 3.4 1.5 5.8 3.3 7c-1 0-2-.3-2.8-1 0 0-.2 0-.2.2C1 8.4 3 10 4.8 10.5c-1.5 0-2.5.2-3.6-.4.7 2.5 2.3 3 4.7 3-1.5 1-3 2-6 2v.3c1 1 4 1.7 7.5 1.7C14 17 19 11.3 19 4.4V4c1-.4 1.6-1.2 2-2v-.2l-2.3.7c1-.8 1.5-1.6 1.8-2.5L18 1h-.5c-.5-.3-2-1-2.8-1z"/></defs></svg>